<svg xmlns="http://www.w3.org/2000/svg" aria-hidden="true" viewBox="0 0 100 100"><path fill="#fff" d="M50 100A50 50 0 1 0 0 50a50 50 0 0 0 50 50"/><path fill="#1576d4" d="M81.78 57.87a15.67 15.67 0 1 1-31.35 0V25.35h11.2V58.4a4.48 4.48 0 0 0 8.96 0V25.35h11.2zM50.19 64.8a21.2 21.2 0 0 1-.8-2.28H33.16s4.87-4.41 10.99-10.54a15.64 15.64 0 0 0 4.5-11.12v-.02a15.52 15.52 0 0 0-26.62-10.98 15.75 15.75 0 0 0-4.55 11.17h11.2a4.64 4.64 0 0 1 1.31-3.26 4.46 4.46 0 1 1 6.34 6.27s-8.94 8.65-16.73 16.25a7.66 7.66 0 0 0-2.11 5.46 7.96 7.96 0 0 0 7.88 7.97h33.22a18.98 18.98 0 0 1-4.64-3.41 17.2 17.2 0 0 1-3.75-5.51zm33.38 5.71.9 1.3h-.79l-.8-1.18h-.72v1.18h-.65v-3.42h1.54c.75 0 1.31.37 1.31 1.08a1.03 1.03 0 0 1-.79 1.04zm.12-.98c0-.37-.26-.56-.7-.56h-.83v1.12H83c.44 0 .7-.23.7-.56zm2.48.62v.02a3.35 3.35 0 1 1-6.7.02v-.02a3.35 3.35 0 1 1 6.7-.02zm-.38 0a2.97 2.97 0 1 0-5.94.02v.02a2.97 2.97 0 1 0 5.94-.02z"/></svg>