<?xml version="1.0" encoding="UTF-8" standalone="no"?>
<svg
   viewBox="0 0 150 30"
   data-v-16630c2e=""
   version="1.1"
   id="svg4"
   sodipodi:docname="avatar-la.svg"
   width="150"
   height="30"
   inkscape:version="1.1 (c68e22c387, 2021-05-23)"
   xmlns:inkscape="http://www.inkscape.org/namespaces/inkscape"
   xmlns:sodipodi="http://sodipodi.sourceforge.net/DTD/sodipodi-0.dtd"
   xmlns="http://www.w3.org/2000/svg"
   xmlns:svg="http://www.w3.org/2000/svg">
  <defs
     id="defs8" />
  <sodipodi:namedview
     id="namedview6"
     pagecolor="#ffffff"
     bordercolor="#666666"
     borderopacity="1.0"
     inkscape:pageshadow="2"
     inkscape:pageopacity="0.0"
     inkscape:pagecheckerboard="0"
     showgrid="false"
     inkscape:zoom="8.4769231"
     inkscape:cx="64.941016"
     inkscape:cy="9.9682396"
     inkscape:window-width="2560"
     inkscape:window-height="1377"
     inkscape:window-x="-8"
     inkscape:window-y="-8"
     inkscape:window-maximized="1"
     inkscape:current-layer="svg4" />
  <path
     d="m 25.8545,14.610673 c 0,0.4 0.02,0.752 -0.43,0.752 h -10.62 a 3.46,3.46 0 0 0 -3.7,2.965 c -0.059,0.38 -0.092,0.763 -0.1,1.147 v 0.1 c 0,3.564 3.8,4.208 3.8,4.208 1.114,0.137 2.238,0.186 3.36,0.145 h 13.37 a 0.55,0.55 0 0 0 0.589,-0.506 l 10e-4,-0.021 v -9.457 a 4.218,4.218 0 0 0 -0.88,-2.963 4.556,4.556 0 0 0 -2.92,-1.1999999 27.499,27.499 0 0 0 -2.78,-0.192 h -13.08 a 0.544,0.544 0 0 0 -0.579,0.5079999 l -0.001,0.018 v 3.251 c 0.01,0.301 0.262,0.537 0.563,0.527 l 0.018,-10e-4 h 11.4 c 1.819,-0.004 1.989,0.719 1.989,0.719 z m -0.14,4.64 a 0.7,0.7 0 0 1 -0.7,0.694 h -7.56 a 0.7,0.7 0 0 1 -0.71,-0.69 v -0.204 a 0.7,0.7 0 0 1 0.7,-0.7 h 7.57 a 0.7,0.7 0 0 1 0.7,0.7 z m 24.47,3.805 a 0.987,0.987 0 0 1 -0.81,0.472 h -7.64 a 0.987,0.987 0 0 1 -0.81,-0.472 l -7.2,-13 a 0.291,0.291 0 0 1 0.28,-0.4719999 h 6.73 a 0.928,0.928 0 0 1 0.81,0.4719999 l 3.74,7.067 a 0.287,0.287 0 0 0 0.53,0 l 3.79,-7.067 a 0.954,0.954 0 0 1 0.82,-0.4719999 h 6.72 a 0.3,0.3 0 0 1 0.29,0.4719999 z m 23.7,-8.445 c 0,0.4 0.02,0.752 -0.44,0.752 h -10.62 a 3.469,3.469 0 0 0 -3.7,2.965 c -0.05,0.381 -0.08,0.763 -0.09,1.147 v 0.1 c 0,3.564 3.79,4.208 3.79,4.208 1.118,0.137 2.245,0.186 3.37,0.145 h 13.37 a 0.556,0.556 0 0 0 0.59,-0.518 v -9.466 a 4.27,4.27 0 0 0 -0.88,-2.963 4.556,4.556 0 0 0 -2.92,-1.1999999 15.817,15.817 0 0 0 -1.79,-0.192 h -14.07 a 0.553,0.553 0 0 0 -0.589,0.5159999 l -0.001,0.01 v 3.251 a 0.554,0.554 0 0 0 0.58,0.527 l 0.01,-10e-4 h 11.4 c 1.82,-0.004 1.99,0.719 1.99,0.719 z m -0.139,4.444 a 0.7,0.7 0 0 1 -0.705,0.695 h -7.555 a 0.7,0.7 0 0 1 -0.71,-0.69 v -0.005 a 0.7,0.7 0 0 1 0.7,-0.7 h 7.56 a 0.7,0.7 0 0 1 0.71,0.69 z m 16.45,4.942 c -1.14,0.026 -2.28,-0.037 -3.41,-0.189 a 4.308,4.308 0 0 1 -2.78,-1.225 4.11,4.11 0 0 1 -0.86,-2.872 V 6.5146731 a 0.566,0.566 0 0 1 0.57,-0.517 h 5.9 a 0.576,0.576 0 0 1 0.58,0.517 v 2.972 a 0.568,0.568 0 0 0 0.53,0.5619999 h 2.4 a 0.528,0.528 0 0 1 0.53,0.521 v 3.534 a 0.528,0.528 0 0 1 -0.53,0.518 h -2.4 a 0.57,0.57 0 0 0 -0.53,0.567 v 2.779 a 8.35,8.35 0 0 0 0.05,1.129 0.257,0.257 0 0 0 0.14,0.142 c 0.252,0.134 0.535,0.199 0.82,0.187 h 3.55 a 0.574,0.574 0 0 1 0.58,0.518 v 3.535 a 0.574,0.574 0 0 1 -0.58,0.518 z m 23.18,-9.385 c 0,0.4 0.02,0.752 -0.44,0.752 h -10.62 a 3.46,3.46 0 0 0 -3.7,2.965 c -0.059,0.38 -0.092,0.763 -0.1,1.147 v 0.1 c 0,3.564 3.8,4.208 3.8,4.208 1.114,0.137 2.238,0.186 3.36,0.145 h 13.38 a 0.545,0.545 0 0 0 0.579,-0.511 l 10e-4,-0.016 v -9.458 a 4.27,4.27 0 0 0 -0.87,-2.963 4.602,4.602 0 0 0 -2.93,-1.1999999 15.642,15.642 0 0 0 -1.78,-0.192 h -14.08 a 0.544,0.544 0 0 0 -0.579,0.5079999 l -0.001,0.018 v 3.251 c 0.01,0.301 0.262,0.537 0.563,0.527 l 0.018,-10e-4 h 11.4 c 1.819,-0.004 1.999,0.719 1.999,0.72 z m -0.14,4.444 a 0.7,0.7 0 0 1 -0.705,0.695 h -7.565 a 0.7,0.7 0 0 1 -0.71,-0.69 v -0.005 a 0.7,0.7 0 0 1 0.7,-0.7 h 7.57 a 0.7,0.7 0 0 1 0.71,0.69 z m 18.65,-4.434 h -1.34 a 0.846,0.846 0 0 0 -0.67,0.944 v 7.914 a 0.574,0.574 0 0 1 -0.58,0.518 h -5.9 a 0.541,0.541 0 0 1 -0.579,-0.502 l -0.001,-0.016 v -12.911 a 0.544,0.544 0 0 1 0.563,-0.522 l 0.017,10e-4 h 5.9 a 0.543,0.543 0 0 1 0.58,0.426 c 0,0.283 0.19,0.331 0.43,0.141 a 4.14,4.14 0 0 1 2.21,-0.566 h 5.9 a 0.542,0.542 0 0 1 0.579,0.504 l 0.001,0.017 v 3.534 a 0.543,0.543 0 0 1 -0.564,0.519 l -0.016,-0.001 z"
     id="path2" />
</svg>
