<svg xmlns="http://www.w3.org/2000/svg" xmlns:xlink="http://www.w3.org/1999/xlink" viewBox="0 0 75 75"><defs><linearGradient id="b" x1="0" x2="47.6" y1="47.6" y2="47.6" gradientTransform="scale(1.00001 .99999)" gradientUnits="userSpaceOnUse"><stop offset="0%" stop-color="#0ECC7E"/><stop offset="100%" stop-color="#00C6D1"/></linearGradient><path id="a" d="M0 23.8a23.8 23.8 0 0 0 23.8 23.8 5.29 5.29 0 0 0 0-10.58A13.22 13.22 0 1 1 37.02 23.8a5.29 5.29 0 0 0 10.58 0 23.8 23.8 0 0 0-47.6 0"/><mask id="c" fill="#fff"><use xlink:href="#a" width="100%" height="100%"/></mask></defs><path fill="url(#b)" fill-rule="evenodd" d="M0 23.8a23.8 23.8 0 0 0 23.8 23.8 5.29 5.29 0 0 0 0-10.58A13.22 13.22 0 1 1 37.02 23.8a5.29 5.29 0 0 0 10.58 0 23.8 23.8 0 0 0-47.6 0" mask="url(#c)" transform="matrix(1.0505 0 0 1.05053 12.5 12.5)"/><path fill="#0ecc7e" fill-rule="evenodd" d="M62.5 56.94a5.56 5.56 0 0 1-5.56 5.56 5.56 5.56 0 1 1 5.56-5.56z"/></svg>