<svg xmlns="http://www.w3.org/2000/svg" fill="none" viewBox="0 0 1200 1200"><path fill="#000" d="m361.46 516.5.02 143.13h95.4v-19.96h-73.77V598.6h63.15v-19.28h-63.15V536.7h73.78v-20.2h-95.43zm699.73 0v151.09h23.85V516.5h-23.85zm-488.96 3.1v95.9c0 20.13-11.95 29.13-23.79 29.13-8.44 0-18.63-7.87-22.88-12.23l-1.97 1.9-8.05 8.65-2 2.44c4.9 5.79 17.07 17.56 34.9 17.56 27.31 0 44.97-18.72 44.97-47.68V519.6h-21.18zm-457.27.16v141.66h20.55l-.16-97.7 60.13 87.96h7.6l60.33-87.95v49l-.03-.03v17.96c0 31.54 9.94 47.87 32.2 52.84l5.06-7.53c-13.67-6.86-15.69-22.6-15.73-38.7v-.42l-.32-117.08h-15.8L199.85 623.1l-66.12-103.35h-18.78zm554.45.12v84.65c0 33.63 25.6 58.98 59.52 58.98 34.2 0 59.98-25.35 59.98-58.98v-84.65h-21.3v83.54c0 23.6-15.9 40.1-38.68 40.1-22.5 0-38.22-16.67-38.22-40.54v-83.1h-21.3zm196.67 0V661.3h20.84v-54.95h29.7l29.75 54.95h25.7l-33.77-56.38 1.2-.47c20.9-8.34 32.4-22.96 32.4-41.17 0-24.73-20.49-43.39-47.66-43.39h-58.16zm21.3 19.33h35.07c16.18 0 28.38 10.54 28.38 24.5 0 16.9-14.28 25.75-28.38 25.75h-35.08V539.2z"/></svg>